# xmcd
#
# Track frame offsets:
#	150
#	11873
#	20879
#	32598
#	42147
#	58812
#	68729
#	83705
#
# Disc length: 1532 seconds
#
# Revision: 3
# Processed by: cddbd v1.5.1PL2 Copyright (c) Steve Scherf et al.
# Submitted via: dBpowerAMP V4.0
#
DISCID=6405fa08
DTITLE=Alice Cooper - Painting A Picture
DYEAR=2006
DGENRE=Rock
TTITLE0=Ain't That Just Like A Woman
TTITLE1=Painting A Picture
TTITLE2=An Instrumental
TTITLE3=I've Written Home To Mother
TTITLE4=Freak Out Song
TTITLE5=Goin' To The River
TTITLE6=Nobody Likes Me
TTITLE7=Science Fiction
EXTD=
EXTT0=
EXTT1=
EXTT2=
EXTT3=
EXTT4=
EXTT5=
EXTT6=
EXTT7=
PLAYORDER=
